<mxfile host="app.diagrams.net" modified="2024-02-02T01:45:20.968Z" agent="Mozilla/5.0 (Windows NT 10.0; Win64; x64) AppleWebKit/537.36 (KHTML, like Gecko) Chrome/120.0.0.0 Safari/537.36" version="23.1.1" etag="riNKTBODnr77WyF6LAsH" type="github">
  <diagram name="第 1 页" id="3ukKatZRz_K8dzdWeIAZ">
    <mxGraphModel>
      <root>
        <mxCell id="0" />
        <mxCell id="1" parent="0" />
      </root>
    </mxGraphModel>
  </diagram>
</mxfile>
